<?xml version="1.0" standalone="no"?>
<!DOCTYPE svg PUBLIC "-//W3C//DTD SVG 20010904//EN"
 "http://www.w3.org/TR/2001/REC-SVG-20010904/DTD/svg10.dtd">
<svg version="1.0" xmlns="http://www.w3.org/2000/svg"
 width="1695.000000pt" height="907.000000pt" viewBox="0 0 1695.000000 907.000000"
 preserveAspectRatio="xMidYMid meet">
<metadata>
Created by potrace 1.16, written by Peter Selinger 2001-2019
</metadata>
<g transform="translate(0.000000,907.000000) scale(0.100000,-0.100000)"
fill="#000000" stroke="none">
<path d="M710 9064 c-14 -2 -56 -11 -95 -19 -270 -56 -324 -74 -373 -127 -15
-16 -53 -47 -86 -68 -57 -38 -96 -83 -110 -127 -4 -13 -12 -23 -17 -23 -5 0
-9 -22 -9 -50 0 -27 -4 -50 -9 -50 -5 0 -2 -28 5 -62 7 -35 13 -73 14 -86 0
-13 9 -32 20 -44 27 -29 51 -117 60 -220 4 -49 13 -95 21 -105 8 -10 17 -22
21 -28 24 -33 56 -63 73 -69 11 -3 36 -21 55 -40 20 -18 46 -36 57 -40 12 -4
36 -20 52 -35 17 -16 38 -31 46 -35 8 -3 19 -16 24 -29 5 -14 19 -27 31 -30
12 -3 24 -15 27 -26 3 -12 9 -21 13 -21 5 0 15 -6 22 -12 7 -7 47 -31 88 -52
73 -38 182 -112 188 -128 2 -4 8 -8 12 -8 5 0 21 -11 36 -25 15 -14 33 -25 40
-25 8 0 14 -4 14 -10 0 -5 8 -10 19 -10 20 0 85 -41 114 -71 10 -11 25 -19 33
-19 9 0 28 -8 42 -19 15 -10 51 -31 81 -46 30 -15 77 -51 106 -81 28 -30 54
-54 59 -54 4 0 17 -11 30 -25 13 -14 27 -25 31 -25 23 0 129 -90 163 -138 22
-32 61 -77 87 -102 26 -25 78 -89 117 -143 39 -54 83 -113 98 -130 15 -18 43
-61 61 -97 19 -36 42 -71 51 -78 10 -7 18 -18 18 -24 0 -5 11 -19 25 -30 14
-11 25 -26 25 -33 0 -8 19 -29 41 -47 85 -69 119 -101 119 -114 0 -8 4 -14 8
-14 5 0 15 -12 22 -26 8 -14 27 -32 42 -40 16 -8 28 -23 28 -34 0 -11 7 -20
15 -20 8 0 22 -14 31 -32 9 -17 35 -50 58 -72 23 -23 52 -58 66 -78 14 -20 35
-39 47 -42 12 -4 46 -28 76 -56 30 -27 60 -50 66 -50 6 0 37 -24 69 -52 32
-29 95 -86 140 -126 45 -40 82 -81 82 -91 0 -10 11 -23 24 -30 13 -7 36 -30
51 -50 15 -20 45 -49 67 -64 22 -15 45 -41 51 -56 18 -41 58 -91 74 -91 7 0
16 -7 19 -15 4 -8 11 -15 16 -15 5 0 37 -27 71 -60 34 -33 67 -60 74 -60 7 0
13 -7 13 -15 0 -8 7 -15 15 -15 8 0 15 -4 15 -8 0 -5 11 -14 24 -20 51 -23 32
-127 -25 -139 -16 -3 -38 -16 -47 -28 -10 -12 -33 -26 -51 -30 -49 -11 -96
-32 -111 -49 -7 -9 -17 -16 -22 -16 -5 0 -16 -7 -25 -15 -8 -9 -28 -19 -44
-22 -16 -3 -29 -9 -29 -14 0 -5 -7 -9 -15 -9 -9 0 -26 -11 -39 -25 -13 -14
-31 -25 -40 -25 -9 0 -16 -4 -16 -10 0 -5 -7 -10 -15 -10 -8 0 -15 -4 -15 -10
0 -5 -6 -10 -14 -10 -7 0 -21 -11 -29 -24 -9 -12 -33 -31 -54 -41 -21 -10 -42
-24 -46 -31 -4 -8 -12 -14 -17 -14 -5 0 -20 -11 -34 -25 -14 -14 -32 -25 -39
-25 -8 0 -17 -7 -21 -15 -3 -8 -12 -15 -21 -15 -8 0 -15 -4 -15 -10 0 -5 -7
-10 -15 -10 -17 0 -64 -48 -65 -65 0 -6 -46 -57 -103 -115 -57 -58 -106 -113
-110 -122 -3 -10 -11 -18 -16 -18 -5 0 -12 -14 -16 -30 -4 -17 -10 -30 -14
-30 -11 0 -31 -46 -47 -108 -8 -29 -23 -70 -34 -92 -17 -33 -20 -59 -20 -169
0 -73 6 -163 15 -208 8 -43 15 -94 15 -114 0 -20 6 -54 14 -76 8 -22 20 -81
27 -131 7 -51 16 -92 20 -92 6 0 14 -29 41 -140 11 -45 82 -192 106 -218 6 -7
12 -20 12 -29 0 -20 60 -157 71 -161 5 -2 9 -10 9 -17 0 -7 7 -15 15 -19 8 -3
15 -12 15 -21 0 -8 4 -15 8 -15 7 0 109 -131 155 -200 45 -66 94 -143 117
-182 14 -23 48 -69 75 -102 63 -76 254 -320 283 -362 22 -33 72 -207 72 -254
0 -34 16 -65 55 -106 53 -54 73 -62 150 -59 51 3 79 -1 103 -13 30 -16 34 -15
66 2 34 18 35 18 63 -4 25 -19 38 -21 106 -18 l79 3 15 -40 c17 -45 42 -150
50 -209 5 -38 -12 -141 -27 -161 -17 -23 -19 -88 -4 -124 12 -28 14 -56 9
-126 -7 -99 11 -171 53 -219 11 -14 26 -35 33 -48 7 -12 19 -28 28 -35 19 -15
67 -17 76 -3 3 6 16 10 28 10 12 0 46 11 75 25 43 20 58 22 79 14 15 -6 39 -7
53 -3 26 8 130 13 263 13 52 0 77 3 77 11 0 9 11 10 35 6 43 -8 75 0 75 20 0
21 31 17 37 -5 3 -13 17 -20 50 -25 70 -9 81 -8 88 15 5 16 12 19 34 14 15 -3
47 2 71 10 37 13 51 14 82 4 40 -13 79 -7 102 16 10 10 24 13 41 9 29 -7 81
11 89 32 3 8 15 14 26 14 11 0 28 8 38 18 84 90 112 121 112 127 0 14 62 85
74 85 11 0 56 76 56 95 0 4 6 21 14 38 8 18 24 88 35 157 12 69 28 145 35 170
21 70 22 425 2 520 -9 41 -19 127 -22 190 -3 63 -10 129 -16 145 -17 52 -28
254 -17 325 9 56 52 175 69 190 13 12 110 140 110 146 0 4 10 16 23 28 12 11
29 30 37 41 15 20 30 31 85 61 26 15 37 15 90 5 33 -7 78 -22 100 -33 74 -36
119 -49 210 -59 49 -5 94 -14 99 -19 6 -6 18 -10 28 -10 10 0 18 -4 18 -10 0
-5 6 -10 14 -10 8 0 21 -6 28 -13 28 -29 74 -41 303 -86 28 -5 68 -15 90 -21
22 -6 58 -15 80 -20 22 -4 56 -13 75 -19 19 -6 63 -11 97 -11 35 0 80 -6 100
-14 21 -8 70 -17 108 -20 111 -9 225 -31 285 -56 147 -61 145 -61 500 -89 164
-14 234 -27 304 -59 33 -15 77 -34 96 -41 19 -7 53 -20 75 -28 22 -8 58 -29
80 -46 22 -18 69 -45 105 -61 36 -16 92 -42 125 -57 132 -60 307 -94 535 -105
116 -5 164 -12 240 -34 111 -33 189 -59 210 -71 106 -58 407 -199 425 -199 13
0 146 -39 210 -61 57 -20 105 -29 208 -38 100 -9 152 -21 332 -79 74 -24 93
-26 260 -26 201 0 208 1 450 80 28 9 77 22 110 29 33 7 78 20 100 29 22 8 54
15 72 16 17 0 34 4 37 9 4 5 29 12 56 16 27 4 52 11 56 16 3 5 16 9 29 9 13 0
27 5 31 11 10 16 128 5 159 -15 21 -14 46 -15 192 -8 214 9 278 3 378 -37 129
-52 322 -153 373 -195 26 -21 70 -53 98 -71 29 -18 71 -53 95 -77 61 -62 197
-153 274 -183 66 -26 186 -88 238 -123 27 -17 52 -32 55 -32 3 0 20 -11 38
-25 18 -14 36 -25 40 -25 38 0 248 -151 301 -217 14 -18 50 -38 85 -46 21 -6
95 -73 162 -148 16 -19 25 -21 90 -14 83 7 185 -12 266 -51 27 -13 56 -24 64
-24 8 0 18 -4 21 -10 3 -5 14 -10 24 -10 9 0 34 -16 54 -35 20 -19 47 -35 60
-35 13 0 32 -7 43 -15 12 -9 43 -14 89 -15 58 0 72 3 82 19 6 10 33 24 60 30
51 13 83 35 83 57 0 8 11 16 25 20 15 4 25 13 25 24 0 29 38 35 71 11 15 -12
35 -21 44 -21 8 0 21 -11 27 -25 6 -13 19 -27 30 -30 10 -4 18 -12 18 -20 0
-14 21 -25 51 -25 10 0 19 -4 19 -9 0 -19 62 -33 125 -29 59 4 69 7 103 41 21
20 43 37 50 37 7 0 12 4 12 8 0 14 48 32 82 32 18 0 45 -11 64 -25 26 -20 44
-25 88 -25 47 0 57 4 74 25 24 30 73 171 66 188 -2 7 0 42 5 78 11 81 -1 211
-26 264 -32 71 -93 164 -111 169 -20 7 -85 68 -175 163 -46 49 -61 72 -73 119
-16 59 -14 141 3 153 10 6 29 124 44 271 4 47 12 108 17 135 5 28 7 96 4 153
-4 80 -9 107 -23 124 -11 11 -19 25 -19 30 0 5 -15 28 -33 51 -18 23 -41 58
-51 78 -12 22 -35 44 -62 59 -48 25 -174 146 -174 167 0 7 -10 32 -22 55 -18
33 -24 67 -29 148 -4 58 -17 143 -29 190 -12 47 -23 112 -25 145 -9 132 -54
315 -107 430 -28 61 -57 133 -66 160 -8 28 -31 70 -52 95 -20 25 -42 61 -50
80 -24 63 -72 144 -110 185 -20 22 -52 67 -70 100 -18 33 -40 68 -48 78 -18
20 -23 29 -77 127 -22 40 -61 97 -87 128 -27 30 -48 61 -48 68 0 7 -26 44 -58
83 -35 43 -65 93 -77 126 -10 30 -21 55 -24 55 -7 0 -39 101 -52 160 -26 126
-63 240 -78 240 -5 0 -20 25 -35 55 -14 30 -31 55 -36 55 -6 0 -16 14 -21 30
-6 17 -15 30 -20 30 -5 0 -9 7 -9 15 0 8 -4 15 -9 15 -11 0 -40 68 -75 177
-15 45 -34 87 -42 93 -8 7 -14 16 -14 21 0 4 -11 24 -23 43 -13 19 -34 63 -46
98 -12 34 -33 83 -45 108 -13 25 -29 63 -35 85 -16 52 -44 115 -52 115 -4 0
-12 15 -19 33 -15 37 -90 170 -100 177 -4 3 -10 15 -14 26 -4 12 -24 34 -45
48 -20 14 -60 54 -87 87 -112 140 -166 198 -217 237 -57 45 -104 98 -130 149
-32 61 -127 180 -154 192 -31 13 -149 83 -201 118 -18 12 -56 26 -84 33 -29 6
-99 36 -156 66 -78 42 -119 58 -170 65 -36 5 -95 18 -130 29 -35 11 -81 20
-101 20 -21 0 -71 9 -112 21 -41 11 -116 24 -167 29 -81 8 -103 14 -160 47
-37 21 -70 39 -74 41 -11 5 -100 85 -183 164 -44 42 -109 100 -145 128 -36 29
-90 77 -120 109 -30 31 -75 69 -99 85 -25 16 -88 61 -140 100 -126 94 -134 99
-237 141 -133 54 -236 75 -373 74 -146 0 -533 -1 -586 -1 -22 0 -60 -1 -85 -1
-25 0 -112 4 -195 10 -153 11 -212 25 -295 69 -25 13 -53 24 -62 24 -36 0
-130 43 -185 85 -32 23 -99 74 -149 112 -81 62 -119 86 -244 156 -19 10 -60
38 -90 60 -63 48 -88 64 -112 73 -10 3 -18 10 -18 14 0 19 -82 54 -165 70
-136 27 -213 27 -856 0 -179 -8 -515 -41 -551 -55 -7 -3 -81 -10 -163 -15
-234 -16 -321 -27 -565 -74 -41 -8 -115 -15 -165 -15 l-90 -1 -111 -75 c-61
-41 -116 -75 -121 -75 -5 0 -37 -13 -69 -30 -33 -16 -90 -36 -126 -43 -55 -12
-76 -22 -116 -59 -43 -38 -83 -64 -197 -126 -13 -7 -38 -30 -55 -52 -18 -22
-37 -40 -43 -40 -7 0 -18 -9 -25 -20 -7 -11 -18 -20 -25 -20 -6 0 -39 -25 -71
-55 -33 -30 -62 -55 -66 -55 -3 0 -38 -28 -77 -62 -192 -170 -295 -238 -415
-273 -32 -9 -60 -21 -63 -26 -10 -16 -168 -85 -225 -99 -30 -7 -95 -30 -143
-52 -127 -57 -172 -63 -378 -50 -181 12 -292 25 -370 43 -34 8 -68 7 -138 -5
-51 -8 -95 -17 -98 -19 -2 -3 -17 -39 -32 -80 l-28 -76 18 -88 c10 -48 19 -96
19 -106 0 -29 50 -150 72 -174 11 -11 24 -38 29 -60 26 -115 -79 -159 -166
-69 -19 20 -39 36 -44 36 -6 0 -36 26 -68 58 -117 117 -132 139 -199 272 -23
47 -87 120 -105 120 -28 0 -117 96 -131 141 -7 25 -24 47 -47 63 -50 36 -214
206 -288 301 -35 44 -86 107 -115 141 -29 33 -78 92 -108 130 -30 38 -89 105
-130 149 -42 44 -93 102 -115 129 -50 63 -123 134 -156 151 -54 29 -175 114
-199 140 -14 15 -43 36 -65 47 -22 12 -64 38 -93 59 -29 20 -84 47 -123 59
-38 11 -93 36 -122 54 -29 18 -83 40 -122 50 -80 19 -231 63 -385 112 -88 28
-300 77 -312 73 -1 -1 -14 -3 -28 -5z"/>
</g>
</svg>
