<?xml version="1.0" encoding="iso-8859-1"?>
<!-- Uploaded to: SVG Repo, www.svgrepo.com, Generator: SVG Repo Mixer Tools -->
<!DOCTYPE svg PUBLIC "-//W3C//DTD SVG 1.1//EN" "http://www.w3.org/Graphics/SVG/1.1/DTD/svg11.dtd">
<svg fill="#000000" version="1.1" id="Capa_1" xmlns="http://www.w3.org/2000/svg" xmlns:xlink="http://www.w3.org/1999/xlink" 
	 width="800px" height="800px" viewBox="0 0 113.71 113.711"
	 xml:space="preserve">
<g>
	<path d="M61.74,13.467C61.74,6.029,67.769,0,75.207,0s13.467,6.029,13.467,13.467s-6.029,13.467-13.467,13.467
		S61.74,20.905,61.74,13.467z M103.398,113.293c-1.861,0.916-4.082,0.275-5.188-1.416L85.533,92.536
		c-0.271-0.414-0.451-0.858-0.545-1.315l-0.104-0.509l-2.62-12.907c-0.104,0.002-0.209,0.006-0.314,0.006
		c-0.525,0-1.037-0.045-1.549-0.108l-6.129,10.582l-5.062,22.258c-0.498,2.185-2.672,3.554-4.855,3.056
		c-2.031-0.461-3.356-2.375-3.133-4.396l2.613-23.824c0.043-0.387,0.146-0.75,0.297-1.086l0.236-0.51l6.22-13.527
		c-0.558-1.322-0.903-2.758-0.967-4.275l-0.763-18.286l-5.765,4.561l-0.401,0.317c-1.818,1.439-4.42,1.229-6.007-0.392l-11.34-11.67
		c-1.385-1.426-1.393-3.661-0.08-5.114c-6.03-0.745-11.561-1.426-13.1-1.628c-6.003-0.786-6.234-4.507-6.234-4.509L8.05,27.49
		l0.28-2.836l1.811,0.179l0.204-2.052l0.708,0.07l-0.204,2.052l53.839,5.51c2.994-0.845,3.438-2.267,3.44-2.284l0.459,0.12
		l0.463,0.111c-0.022,0.086-0.487,1.802-3.688,2.836l-0.189,1.924c0.486,0.11,0.959,0.222,1.396,0.341
		c0.711,0.191,1.334,0.388,1.922,0.585l4.49-4.14c0.393-0.361,0.828-0.631,1.278-0.862c1.771-1.127,3.849-1.827,6.099-1.92
		c6.658-0.285,12.274,4.763,12.807,11.34l6.895,0.923c0,0,4.463,9.941-1.229,9.179c-1.265-0.17-2.949-0.395-4.896-0.656
		c0.006,0.148,0.006,0.295,0.012,0.443c-0.116-0.089-0.239-0.169-0.356-0.256l0.703,16.85c0.078,1.892-0.285,3.695-0.979,5.33
		l2.268,17.976l9.662,19.604C106.232,109.868,105.404,112.301,103.398,113.293z M32.702,28.868l-0.943-0.104l-0.393,3.585
		l0.944,0.104L32.702,28.868z M35.771,29.204l-0.944-0.103l-0.393,3.585l0.944,0.103L35.771,29.204z M38.721,29.525l-0.944-0.103
		l-0.393,3.585l0.944,0.104L38.721,29.525z M55.894,37.417c0,0.491,0.4,0.89,0.891,0.89h1.542c0.491,0,0.891-0.399,0.891-0.89
		c0-0.036-0.016-0.065-0.021-0.1c-0.469,0.315-1.139,0.575-2.117,0.575c-0.264,0-0.475-0.213-0.475-0.475
		c0-0.263,0.211-0.475,0.475-0.475c0.152,0,0.282-0.016,0.415-0.031c-0.417-0.052-0.845-0.105-1.286-0.161
		C56.021,36.914,55.894,37.147,55.894,37.417z M61.16,37.376c-0.314-0.04-0.654-0.084-1.01-0.129c0.006,0.057,0.02,0.112,0.02,0.17
		c0,1.015-0.826,1.84-1.84,1.84h-1.545c-1.015,0-1.84-0.825-1.84-1.84c0-0.288,0.072-0.558,0.191-0.801
		c-1.009-0.126-2.064-0.258-3.148-0.392l7.67,5.962l0.426-0.393C59.818,40.209,60.273,38.634,61.16,37.376z M53.464,27.558
		l-11.136-1.126l-0.122,1.206l11.136,1.126L53.464,27.558z"/>
</g>
</svg>