<?xml version='1.0' encoding='iso-8859-1'?>
<!DOCTYPE svg PUBLIC '-//W3C//DTD SVG 1.1//EN' 'http://www.w3.org/Graphics/SVG/1.1/DTD/svg11.dtd'>
<!-- Uploaded to: SVG Repo, www.svgrepo.com, Generator: SVG Repo Mixer Tools -->
<svg fill="#000000" height="800px" width="800px" version="1.1" xmlns="http://www.w3.org/2000/svg" viewBox="0 0 297 297" xmlns:xlink="http://www.w3.org/1999/xlink" enable-background="new 0 0 297 297">
  <g>
    <path d="m108.544,58.227c-32.627,0-59.172,26.549-59.172,59.184 0,32.635 26.545,59.186 59.172,59.186 32.627,0 59.171-26.551 59.171-59.186 0-32.635-26.544-59.184-59.171-59.184zm0,99.156c-22.033,0-39.958-17.932-39.958-39.972 0-22.039 17.925-39.97 39.958-39.97 22.032,0 39.957,17.931 39.957,39.97 0,22.04-17.925,39.972-39.957,39.972z"/>
    <path d="m276.476,22.684l-66.188-22.185c-2.416-0.811-5.055-0.628-7.336,0.51-2.28,1.136-4.018,3.131-4.827,5.547l-8.999,26.861c-1.338,3.995 0.096,8.25 3.263,10.678l-15.637,7.788c-17.799-18.563-42.251-29.068-68.208-29.068-52.15,0-94.577,42.436-94.577,94.597 0,22.508 8.039,44.315 22.637,61.407 12.643,14.802 29.524,25.325 48.173,30.167v12.14h-18.716c-5.305,0-9.606,4.302-9.606,9.606v28.33c0,5.306 4.302,9.607 9.606,9.607h18.716v18.725c0,5.305 4.302,9.606 9.607,9.606h28.322c5.305,0 9.606-4.302 9.606-9.606v-18.725h18.717c5.306,0 9.607-4.302 9.607-9.607v-28.33c0-5.305-4.302-9.606-9.607-9.606h-18.717v-12.142c18.649-4.842 35.529-15.364 48.171-30.166 14.598-17.092 22.637-38.898 22.637-61.406 0-8.166-1.033-16.211-3.078-24.016l15.291-7.617-.056,.166c-1.686,5.03 1.026,10.475 6.056,12.16l26.855,9.003c2.414,0.81 5.055,0.627 7.338-0.51 2.279-1.135 4.016-3.132 4.826-5.547l22.18-66.206c1.686-5.031-1.025-10.475-6.056-12.161zm-31.289,63.152l-8.639-2.896 4.373-13.05c1.232-3.685 0.127-7.749-2.805-10.3-2.932-2.551-7.109-3.082-10.59-1.352l-43.365,21.602c-4.369,2.177-6.411,7.285-4.748,11.874 2.981,8.222 4.493,16.868 4.493,25.697 0,36.966-26.407,68.227-62.791,74.334-4.627,0.776-8.017,4.782-8.017,9.475v29.512c0,5.306 4.302,9.607 9.607,9.607h18.716v9.116h-18.716c-5.306,0-9.607,4.302-9.607,9.606v18.725h-9.108v-18.725c0-5.305-4.301-9.606-9.606-9.606h-18.716v-9.116h18.716c5.306,0 9.606-4.302 9.606-9.607v-29.51c0-4.692-3.389-8.698-8.017-9.476-36.384-6.107-62.793-37.369-62.793-74.335 0-41.565 33.808-75.383 75.363-75.383 22.754,0 44.058,10.135 58.45,27.805 2.838,3.482 7.71,4.536 11.733,2.532l42.328-21.084c3.476-1.733 5.568-5.39 5.299-9.266s-2.846-7.208-6.531-8.443l-9.427-3.159 2.896-8.643 47.971,16.078-16.075,47.988z"/>
    <path d="m124.165,95.928h-31.244c-5.306,0-9.606,4.302-9.606,9.607 0,5.306 4.301,9.606 9.606,9.606h31.244c5.306,0 9.607-4.301 9.607-9.606 0.001-5.305-4.301-9.607-9.607-9.607z"/>
    <path d="m124.165,119.679h-31.244c-5.306,0-9.606,4.302-9.606,9.607 0,5.306 4.301,9.607 9.606,9.607h31.244c5.306,0 9.607-4.301 9.607-9.607 0.001-5.305-4.301-9.607-9.607-9.607z"/>
  </g>
</svg>