<?xml version="1.0" encoding="utf-8"?>
<!-- Uploaded to: SVG Repo, www.svgrepo.com, Generator: SVG Repo Mixer Tools -->
<svg fill="#000000" height="800px" width="800px" version="1.2" baseProfile="tiny" id="Layer_1" xmlns="http://www.w3.org/2000/svg" xmlns:xlink="http://www.w3.org/1999/xlink"
	  viewBox="0 0 256 256" xml:space="preserve">
<path id="XMLID_7_" d="M174.4,84.2l10.6-35c1.3-3.9,7.5-11.2,16.1-11.2h24.2c8.7,0,13.7,7.3,14.8,11.3l10.6,35.1
	c2.2,7.5-7.4,10.4-9.7,3.5L231.5,56h-5.2l15.8,56h-15v44c0,8-12,8-12,0v-44h-5v45c0,7-12,7-12,0v-45h-14.9L199,56h-5.5L184,87.7
	C181.7,95,172.2,91.7,174.4,84.2z M212.5,35.9c6.8,0,12.3-5.5,12.3-12.3c0-6.8-5.5-12.4-12.3-12.4s-12.3,5.5-12.3,12.4
	C200.2,30.3,205.7,35.9,212.5,35.9z M35.5,88.3c6.8,0,12.3-5.5,12.3-12.3c0-6.8-5.5-12.3-12.3-12.3c-6.8,0-12.3,5.5-12.3,12.3
	C23.2,82.8,28.7,88.3,35.5,88.3z M13,145v-37h5.7l0,99.9c0,3.8,3.3,6.9,7.1,6.9s7.1-3.1,7.1-6.9V150h5v57.8c0,3.8,3.3,6.9,7.1,6.9
	c3.8,0,7-3,7-6.9l0.1-99.9H58v37c0,7,10,7,10,0v-38.2c0-8.9-7.2-16-15.9-16l-32.9,0c-9.6,0-16.2,8-16.2,16.2V145
	C3,152,13,152,13,145z M136.1,200.7L251,166l-2.9-9.6L8.8,228.6l2.9,9.6l99.2-29.9c-4.2,4.6-6.8,10.8-6.8,17.5
	c0,14.3,11.6,25.9,25.9,25.9c14.3,0,25.9-11.6,25.9-25.9C155.8,213.7,147.4,203.5,136.1,200.7z"/>
</svg>