<?xml version="1.0" encoding="iso-8859-1"?>
<!-- Uploaded to: SVG Repo, www.svgrepo.com, Generator: SVG Repo Mixer Tools -->
<svg height="800px" width="800px" version="1.1" id="Layer_1" xmlns="http://www.w3.org/2000/svg" xmlns:xlink="http://www.w3.org/1999/xlink" 
	 viewBox="0 0 505.173 505.173" xml:space="preserve">
<g transform="translate(1 13)">
	<path style="fill:#AAB1BA;" d="M373.613,43.32l-11.947,34.133L321.56,196.92l-19.627,59.733c0,4.267-3.413,8.533-8.533,8.533
		L54.467,209.72L37.4,205.453c-5.12,0-8.533-4.267-8.533-8.533L3.267,51.853c0-4.267,3.413-8.533,8.533-8.533H373.613z"/>
	<path style="fill:#ECF4F7;" d="M429.933,196.92h-107.52h-0.853l40.107-119.467H447c18.773,0,34.133,15.36,34.133,34.133v85.333
		H429.933z"/>
	<path style="fill:#AAB1BA;" d="M105.667,265.187c37.547,0,68.267,30.72,68.267,68.267s-30.72,68.267-68.267,68.267
		S37.4,371,37.4,333.453c0-25.6,13.653-47.787,34.133-58.88C81.773,268.6,92.867,265.187,105.667,265.187z M378.733,265.187
		c37.547,0,68.267,30.72,68.267,68.267s-30.72,68.267-68.267,68.267s-68.267-30.72-68.267-68.267S341.187,265.187,378.733,265.187z"
		/>
	<path style="fill:#ECF4F7;" d="M378.733,316.387c9.387,0,17.067,7.68,17.067,17.067s-7.68,17.067-17.067,17.067
		c-9.387,0-17.067-7.68-17.067-17.067S369.347,316.387,378.733,316.387z M105.667,316.387c9.387,0,17.067,7.68,17.067,17.067
		s-7.68,17.067-17.067,17.067S88.6,342.84,88.6,333.453S96.28,316.387,105.667,316.387z"/>
	<path style="fill:#FFE079;" d="M498.2,248.12v85.333H447c0-37.547-30.72-68.267-68.267-68.267s-68.267,30.72-68.267,68.267H173.933
		c0-37.547-30.72-68.267-68.267-68.267c-12.8,0-23.893,3.413-34.133,9.387v-0.853l-17.067-64L293.4,265.187
		c5.12,0,8.533-4.267,8.533-8.533l19.627-59.733h0.853h107.52h51.2c0,0,17.067,8.533,17.067,25.6L498.2,248.12L498.2,248.12z"/>
</g>
<path style="fill:#51565F;" d="M499.2,453.12H362.667c-2.56,0-4.267-1.707-4.267-4.267c0-2.56,1.707-4.267,4.267-4.267H499.2
	c2.56,0,4.267,1.707,4.267,4.267C503.467,451.413,501.76,453.12,499.2,453.12z M328.533,453.12h-17.067
	c-2.56,0-4.267-1.707-4.267-4.267c0-2.56,1.707-4.267,4.267-4.267h17.067c2.56,0,4.267,1.707,4.267,4.267
	C332.8,451.413,331.093,453.12,328.533,453.12z M260.267,453.12h-85.333c-2.56,0-4.267-1.707-4.267-4.267
	c0-2.56,1.707-4.267,4.267-4.267h85.333c2.56,0,4.267,1.707,4.267,4.267C264.533,451.413,262.827,453.12,260.267,453.12z
	 M123.733,453.12H4.267c-2.56,0-4.267-1.707-4.267-4.267c0-2.56,1.707-4.267,4.267-4.267h119.467c2.56,0,4.267,1.707,4.267,4.267
	C128,451.413,126.293,453.12,123.733,453.12z M379.733,418.987c-38.4,0-69.973-29.867-72.533-68.267h-98.133
	c-2.56,0-4.267-1.707-4.267-4.267s1.707-4.267,4.267-4.267H307.2c2.56-38.4,34.133-68.267,72.533-68.267
	c40.107,0,72.533,32.427,72.533,72.533S419.84,418.987,379.733,418.987z M379.733,282.453c-34.987,0-64,29.013-64,64
	s29.013,64,64,64s64-29.013,64-64S414.72,282.453,379.733,282.453z M106.667,418.987c-40.107,0-72.533-32.427-72.533-72.533
	s32.427-72.533,72.533-72.533s72.533,32.427,72.533,72.533S146.773,418.987,106.667,418.987z M106.667,282.453
	c-34.987,0-64,29.013-64,64s29.013,64,64,64s64-29.013,64-64S141.653,282.453,106.667,282.453z M379.733,367.787
	c-11.947,0-21.333-9.387-21.333-21.333s9.387-21.333,21.333-21.333c11.947,0,21.333,9.387,21.333,21.333
	S391.68,367.787,379.733,367.787z M379.733,333.653c-6.827,0-12.8,5.973-12.8,12.8s5.973,12.8,12.8,12.8
	c6.827,0,12.8-5.973,12.8-12.8S386.56,333.653,379.733,333.653z M106.667,367.787c-11.947,0-21.333-9.387-21.333-21.333
	s9.387-21.333,21.333-21.333S128,334.507,128,346.453S118.613,367.787,106.667,367.787z M106.667,333.653
	c-6.827,0-12.8,5.973-12.8,12.8s5.973,12.8,12.8,12.8s12.8-5.973,12.8-12.8S113.493,333.653,106.667,333.653z M499.2,350.72h-17.067
	c-2.56,0-4.267-1.707-4.267-4.267s1.707-4.267,4.267-4.267h12.8v-76.8h-12.8c-2.56,0-4.267-1.707-4.267-4.267
	s1.707-4.267,4.267-4.267h12.8V235.52c0-11.947-11.093-19.627-13.653-21.333h-50.347l0,0h-68.267c-2.56,0-4.267-1.707-4.267-4.267
	c0-2.56,1.707-4.267,4.267-4.267h65.707l16.213-31.573c0.853-1.707,3.413-2.56,5.973-1.707c1.707,0.853,2.56,2.56,2.56,3.413
	c0,0.853,0,1.707-0.853,1.707l-13.653,28.16h40.107v-81.066c0-16.213-13.653-29.867-29.867-29.867h-81.92l-58.88,175.787
	c0,6.827-5.973,11.947-12.8,11.947H294.4L39.253,222.72c-6.827,0-11.947-5.973-11.947-12.8L1.707,65.707
	c0-7.68,5.973-13.653,12.8-13.653H432.64c2.56,0,4.267,1.707,4.267,4.267c0,2.56-1.707,4.267-4.267,4.267H14.507
	c-2.56,0-4.267,1.707-4.267,4.267l25.6,144.213c0,3.413,1.707,5.12,4.267,5.12h0.853l255.147,59.733c2.56,0,4.267-1.707,4.267-4.267
	c0-0.853,0-0.853,0-1.707l59.733-179.2c0.853-1.707,2.56-2.56,4.267-2.56h85.333c21.333,0,38.4,17.067,38.4,38.4v82.773
	c5.12,3.413,17.067,12.8,17.067,28.16v110.933C503.467,349.013,501.76,350.72,499.2,350.72z M242.347,231.253
	c-1.707,0-3.413-1.707-4.267-3.413L213.333,91.307v-0.853c0-1.707,1.707-3.413,3.413-4.267c2.56-0.853,4.267,0.853,5.12,3.413
	l24.747,136.533v0.853C246.613,228.693,244.907,230.4,242.347,231.253C243.2,231.253,242.347,231.253,242.347,231.253z
	 M170.667,214.187c-1.707,0-3.413-1.707-4.267-3.413L145.067,91.307v-0.853c0-1.707,1.707-3.413,3.413-4.267
	c2.56-0.853,4.267,0.853,5.12,3.413l21.333,119.467v0.853C174.933,211.627,174.08,213.333,170.667,214.187
	C171.52,214.187,171.52,214.187,170.667,214.187z M99.84,197.12c-1.707,0-3.413-1.707-4.267-3.413L76.8,91.307v-0.853
	c0-1.707,1.707-3.413,3.413-4.267c2.56-0.853,4.267,0.853,5.12,3.413L104.107,192v0.853C104.107,194.56,102.4,196.267,99.84,197.12
	L99.84,197.12z M299.52,171.52c-1.707,0-3.413-1.707-4.267-3.413l-13.653-76.8v-0.853c0-1.707,1.707-3.413,3.413-4.267
	c2.56-0.853,4.267,0.853,5.12,3.413l13.653,76.8v0.853C303.787,169.813,302.933,171.52,299.52,171.52
	C300.373,171.52,300.373,171.52,299.52,171.52z"/>
</svg>