<?xml version="1.0" ?>
<!-- Uploaded to: SVG Repo, www.svgrepo.com, Generator: SVG Repo Mixer Tools -->
<svg width="800px" height="800px" viewBox="0 0 512 512" xmlns="http://www.w3.org/2000/svg">
<defs>
<style>.e{fill:#eab84b;}.f{fill:#f2c34e;}.g{fill:#2f8474;}.h{fill:#8c8c8c;}.i{fill:#cecece;}.j{fill:#bebebe;}.k{fill:#dfdfdf;}.l{fill:#41a08e;}.m{fill:#365650;}</style>
</defs>
<g id="a"/>
<g id="b"/>
<g id="c">
<g>
<path class="l" d="M430.35107,393.4043c-8.67773-34.71094-37.50781-60.7124-72.92749-65.77234l-53.42358-7.63196h-96l-53.42358,7.63196c-35.41968,5.05994-64.24976,31.0614-72.92749,65.77234l-25.64893,102.5957H456l-25.64893-102.5957Z"/>
<polygon class="k" points="208 272 208 320 256 384 304 320 304 272 208 272"/>
<path class="k" d="M340.72144,153.57379l-4.72144-1.57379V88H176v64l-4.72144,1.57379c-11.51294,3.83765-19.27856,14.61188-19.27856,26.74762v.00006c0,7.4776,2.97046,14.64899,8.25806,19.93646l7.74194,7.74207v.00006c0,29.23199,17.08569,55.76617,43.69751,67.86249h.00012c28.14917,12.79504,60.45557,12.79504,88.60474,0h.00012c26.61182-12.09631,43.69751-38.63049,43.69751-67.86249v-.00006l7.74194-7.74207c5.2876-5.28748,8.25806-12.45886,8.25806-19.93646v-.00006c0-12.13574-7.76562-22.90997-19.27856-26.74762Z"/>
<path class="e" d="M176,128l-4.1093-28.76511c-2.47693-17.33853,2.50911-34.91466,13.72167-48.36972l.00004-.00005c13.89271-16.67125,35.50274-24.8474,56.95149-21.54759l38.94865,5.9921c20.03638,3.08252,40.51887,1.34657,59.75068-5.06403l18.73678-6.24559v41.49382c0,9.41612-3.05404,18.57823-8.70371,26.11113l-.00002,.00003c-9.44671,12.59561-24.96001,19.10652-40.56641,17.02567l-43.95426-5.86057c-32.43326-4.32443-65.2253,4.78969-90.77555,25.22989l-.00004,.00003Z"/>
<path class="h" d="M262.73535,211.79492l-6.49854-2.16602c-5.50391-1.83447-9.93311-5.96045-12.15332-11.31982-2.21973-5.35986-2.00537-11.40967,.58936-16.59863l15.74951-31.49951,7.15527,3.57812-15.74951,31.49951c-1.55664,3.11328-1.68555,6.74316-.35352,9.95898,1.33203,3.21533,3.98975,5.69092,7.29199,6.7915l6.49805,2.16602-2.5293,7.58984Z"/>
<rect class="h" height="17.88854" transform="translate(-30.01732 295.43095) rotate(-63.43495)" width="8.00006" x="219.99997" y="163.05573"/>
<rect class="h" height="46.64762" transform="translate(-20.09802 260.50307) rotate(-59.03624)" width="8.00048" x="215.99976" y="124.67619"/>
<rect class="g" height="8.00014" transform="translate(-325.53428 556.27714) rotate(-83.65749)" width="72.44308" x="111.77846" y="455.99993"/>
<path class="h" d="M284.20557,257.26514l-.41064-1.23145c-3.99414-11.98291-15.16406-20.03369-27.79492-20.03369s-23.80078,8.05078-27.79443,20.0332l-.41113,1.23193-7.58887-2.53027,.41064-1.23145c5.08447-15.25439,19.3042-25.50342,35.38379-25.50342s30.29932,10.24902,35.38428,25.50391l.41016,1.23096-7.58887,2.53027Z"/>
<rect class="h" height="8.00006" transform="translate(-46.51714 146.9743) rotate(-26.56818)" width="17.88854" x="279.05573" y="167.99997"/>
<rect class="h" height="8.00048" transform="translate(-34.53331 171.32381) rotate(-30.96376)" width="46.64762" x="268.67619" y="143.99976"/>
<path class="k" d="M482.65295,104.84869c8.26331-10.36377,6.56042-25.46405-3.80334-33.72736s-25.46399-6.56055-33.72729,3.80328c8.26331-10.36383,6.56055-25.46405-3.80322-33.72736-10.36377-8.26337-25.46411-6.56055-33.72742,3.80322-4.16687,5.2262-5.79968,11.6568-5.06531,17.8078l-.00183-.0047c-1.32556-1.9538-2.96436-3.74353-4.90759-5.29291-10.36377-8.26331-25.46399-6.56055-33.72729,3.80328-8.26343,10.36377-6.56055,25.46405,3.80322,33.72736,2.22412,1.77338,4.6665,3.08777,7.21265,3.95605l59.94775,44.4353c1.39185,4.36749,4.04773,8.3847,7.90088,11.45685,10.36377,8.26331,25.46399,6.56055,33.72729-3.80322,8.26343-10.36383,6.56055-25.46405-3.80322-33.72736-1.94397-1.54999-4.05444-2.74927-6.25537-3.60657,6.15918-.65454,12.06372-3.67822,16.2301-8.90369Z"/>
<rect class="j" height="7.9996" transform="translate(88.86725 399.67518) rotate(-61.97401)" width="54.55097" x="349.9147" y="121.84981"/>
<rect class="j" height="7.9998" transform="translate(.7087 300.22902) rotate(-40.36081)" width="82.924" x="367.32267" y="145.15049"/>
<rect class="j" height="8.00012" transform="translate(64.55577 369.42219) rotate(-52.62373)" width="71.88666" x="369.8743" y="115.43573"/>
<path class="k" d="M147.69678,51.11499c-8.26343-10.36383-23.36365-12.06659-33.72742-3.80328-1.94324,1.54938-3.58191,3.33911-4.90759,5.29291l-.00171,.0047c.73425-6.151-.89844-12.5816-5.06543-17.8078-8.26331-10.36383-23.36353-12.06659-33.72729-3.80328-10.36377,8.26337-12.06665,23.36359-3.80322,33.72742-8.26343-10.36383-23.36365-12.06659-33.72754-3.80328-10.36377,8.26331-12.06641,23.36359-3.80322,33.72736,4.1665,5.22552,10.07104,8.24915,16.22998,8.90369-2.20068,.8573-4.31128,2.05658-6.25513,3.60651-10.36389,8.26337-12.06665,23.36359-3.80334,33.72742,8.26331,10.36377,23.36365,12.06653,33.72742,3.80322,3.85303-3.07214,6.50903-7.08936,7.90063-11.45685l59.948-44.43536c2.54614-.86823,4.9884-2.18262,7.21265-3.95599,10.36377-8.26331,12.06641-23.36359,3.80322-33.72736Z"/>
<rect class="j" height="62.68955" transform="translate(-37.76095 82.34177) rotate(-30.20061)" width="8.00001" x="129.70239" y="79.79878"/>
<rect class="j" height="66.47132" transform="translate(-68.20068 111.89092) rotate(-46.72757)" width="8.00003" x="91.40648" y="101.64788"/>
<rect class="j" height="98.05657" transform="translate(-49.19555 89.27205) rotate(-36.00178)" width="7.99955" x="108.77073" y="71.3079"/>
<path class="i" d="M256,289.46094c-15.67725,0-31.354-3.31885-45.95752-9.95654l3.31055-7.2832c27.10254,12.31934,58.19141,12.31934,85.29395,0l3.31055,7.2832c-14.60352,6.6377-30.28027,9.95654-45.95752,9.95654Z"/>
<rect class="g" height="72.44308" transform="translate(-48.57218 43.01056) rotate(-6.34019)" width="8.00014" x="359.99993" y="423.77846"/>
<path class="f" d="M408,328c-44.18286,0-80,35.81714-80,80s35.81714,80,80,80,80-35.81726,80-80-35.81714-80-80-80Zm-53.33325,80c0-29.45532,23.87817-53.33337,53.33325-53.33337,10.17163,0,19.67822,2.84753,27.76611,7.78894l-73.31055,73.31067c-4.94141-8.08801-7.78882-17.5946-7.78882-27.76624Zm53.33325,53.33325c-10.17163,0-19.67847-2.84741-27.76636-7.78882l73.31104-73.31055c4.94116,8.08789,7.78857,17.59436,7.78857,27.76611,0,29.45508-23.87817,53.33325-53.33325,53.33325Z"/>
<path class="m" d="M256.23682,209.62891l6.49854,2.16602,2.5293-7.58984-6.49805-2.16602c-3.30225-1.10059-5.95996-3.57617-7.29199-6.7915-1.33203-3.21582-1.20312-6.8457,.35352-9.95898l15.74951-31.49951-7.15527-3.57812-15.74951,31.49951c-2.59473,5.18896-2.80908,11.23877-.58936,16.59863,2.22021,5.35938,6.64941,9.48535,12.15332,11.31982Z"/>
<rect class="m" height="17.88854" transform="translate(-30.01732 295.43095) rotate(-63.43495)" width="8.00006" x="219.99997" y="163.05573"/>
<rect class="m" height="46.64762" transform="translate(-20.09802 260.50307) rotate(-59.03624)" width="8.00048" x="215.99976" y="124.67619"/>
<path class="m" d="M351.43457,330.81689l1.13086-7.91992-44.56543-6.36621v-40.10986c24.01721-13.54199,39.38782-38.94916,39.98193-66.74609l6.58887-6.58838c6.08057-6.08105,9.4292-14.16553,9.4292-22.76514,0-13.87891-8.84668-26.15283-22.01367-30.54248l-1.98633-.66162v-42.35718c5.56714-3.16956,10.52979-7.466,14.49658-12.75513,1.18872-1.58508,2.27075-3.24542,3.2478-4.96399,1.75562,3.43854,4.24487,6.56866,7.45483,9.12805,2.53564,2.02197,5.3667,3.57471,8.41455,4.61426l2.58301-7.57129c-2.17383-.7417-4.19629-1.85156-6.01025-3.29785-4.85132-3.86829-7.42297-9.55127-7.52026-15.31818,.552-2.28613,.93518-4.6131,1.1438-6.95862,.72205-2.05609,1.77368-4.03198,3.20703-5.82965,6.87451-8.62305,19.48193-10.04541,28.10645-3.16943,1.56494,1.24805,2.92432,2.70801,4.04199,4.33984,.93311,1.44727,2.71924,2.15771,4.42188,1.68652,1.9082-.5249,3.14551-2.36572,2.91064-4.33057-.63916-5.354,.85986-10.62402,4.22119-14.83984,6.87451-8.62305,19.48242-10.04443,28.10596-3.16943,4.17725,3.33057,6.80713,8.08838,7.40576,13.39697s-.90576,10.53223-4.23633,14.70947c-.58789,.73682-.87305,1.61816-.87256,2.49268,.00049,1.1748,.51611,2.33887,1.50635,3.12842,1.72705,1.37744,4.24463,1.09473,5.62109-.63379,6.87646-8.62305,19.48486-10.04443,28.10645-3.16943,8.62256,6.875,10.04443,19.4834,3.16943,28.10596-3.36084,4.21484-8.16406,6.8501-13.52539,7.41992-1.83447,.19482-3.29785,1.61914-3.54199,3.44775s.79395,3.5874,2.5127,4.25684c1.87207,.72949,3.62598,1.74121,5.21387,3.00684,4.17676,3.33057,6.80713,8.08838,7.40576,13.39697s-.90625,10.53223-4.23633,14.70947c-3.33057,4.17676-8.08838,6.80713-13.39697,7.40576-5.31055,.59619-10.53271-.90625-14.70947-4.23633-3.10645-2.47705-5.38281-5.77734-6.58301-9.54395l-7.62207,2.42871c1.68213,5.27979,4.86963,9.90332,9.21777,13.37012,5.14648,4.10352,11.30713,6.0957,17.42773,6.0957,8.23584,0,16.39941-3.60742,21.9209-10.53271,9.35352-11.73096,7.73828-28.73047-3.4375-38.51367,3.69336-1.79834,6.96875-4.41309,9.60889-7.72412,4.6626-5.84766,6.76904-13.16113,5.93066-20.59326-.83789-7.43164-4.52002-14.09229-10.36768-18.75488-5.84766-4.66309-13.16309-6.76807-20.59326-5.93115-2.29297,.25879-4.51318,.78809-6.62305,1.56836,.29053-2.23096,.31201-4.51318,.05371-6.80615-.83838-7.43213-4.52051-14.09277-10.36816-18.75537-12.07178-9.625-29.72266-7.63525-39.34814,4.43701-2.64014,3.31104-4.45996,7.0874-5.39062,11.08789-10.74438-7.78741-25.40088-6.84528-35.07373,1.80817V24c0-1.28564-.61816-2.49316-1.66113-3.24512-1.04248-.75098-2.38184-.95703-3.604-.5498l-18.73682,6.24561c-18.54248,6.18164-38.55762,7.87842-57.87695,4.90527l-38.94873-5.99219c-22.69873-3.4917-45.93115,5.29834-60.63281,22.94092-11.9165,14.2998-17.24121,33.06934-14.60889,51.49609l4.06934,28.48486v20.83154l-1.98633,.66162c-13.16699,4.38965-22.01367,16.66357-22.01367,30.54248,0,8.59961,3.34863,16.68408,9.4292,22.76514l6.58887,6.58838c.59412,27.79694,15.96472,53.2041,39.98193,66.74658v40.10925l-49.98975,7.14124c-37.20068,5.31494-67.12793,32.30566-76.2417,68.76221l-25.64893,102.5957,7.76074,1.94043,25.64893-102.5957c8.32178-33.28662,35.64648-57.93018,69.6123-62.78271l51.07947-7.29688,46.57874,62.10498c.75586,1.00732,1.94141,1.6001,3.2002,1.6001s2.44434-.59277,3.2002-1.6001l46.57886-62.10498,45.65552,6.52197ZM188.68506,53.42578c11.04297-13.25098,27.56299-20.81787,44.58496-20.81787,2.88867,0,5.79248,.21777,8.68555,.66309l38.94873,5.99219c20.57227,3.16406,41.87988,1.35889,61.62402-5.22266l13.47168-4.49072v35.94385c0,.841-.0354,1.6806-.08984,2.51862-.75781,2.46289-1.1687,4.99921-1.23145,7.53723-1.29773,4.9129-3.52429,9.57776-6.58252,13.65558-8.56738,11.42334-22.68652,17.34668-36.8374,15.46094l-43.95459-5.86084c-31.06543-4.14209-62.86084,3.82178-88.30273,21.92041l-3.15088-22.05664c-2.31299-16.18896,2.36523-32.6792,12.83447-45.24316Zm-16.68506,154.57422c0-1.06104-.42139-2.07812-1.17139-2.82861l-7.74219-7.74219c-4.56982-4.56934-7.08643-10.64502-7.08643-17.10791,0-10.43018,6.64844-19.6543,16.54395-22.95264l4.72119-1.57373c1.6333-.54443,2.73486-2.07324,2.73486-3.79492v-22.04578c24.36597-18.83478,55.68628-27.29083,86.24658-23.21936l43.95459,5.86084c7.46082,.99457,14.91309,.18262,21.79883-2.19897v41.60327c0,1.72168,1.10156,3.25049,2.73486,3.79492l4.72119,1.57373c9.89551,3.29834,16.54395,12.52246,16.54395,22.95264,0,6.46289-2.5166,12.53857-7.08643,17.10791l-7.74219,7.74219c-.75,.75049-1.17139,1.76758-1.17139,2.82861,0,27.59375-16.23193,52.80225-41.35303,64.22119-27.10254,12.31934-58.19141,12.31982-85.29395-.00049-25.12109-11.41846-41.35303-36.62646-41.35303-64.2207Zm84,169.3335l-44-58.66699v-38.30396c14.04309,6.0603,29.02002,9.09839,43.99951,9.09839s29.95776-3.03857,44.00049-9.09888v38.30444l-44,58.66699Z"/>
<rect class="m" height="8.00014" transform="translate(-325.53428 556.27714) rotate(-83.65749)" width="72.44308" x="111.77846" y="455.99993"/>
<path class="m" d="M256,228c-16.07959,0-30.29932,10.24902-35.38379,25.50342l-.41064,1.23145,7.58887,2.53027,.41113-1.23193c3.99365-11.98242,15.16357-20.0332,27.79443-20.0332s23.80078,8.05078,27.79492,20.03369l.41064,1.23145,7.58887-2.53027-.41016-1.23096c-5.08496-15.25488-19.30469-25.50391-35.38428-25.50391Z"/>
<rect class="m" height="8.00006" transform="translate(-46.51714 146.9743) rotate(-26.56818)" width="17.88854" x="279.05573" y="167.99997"/>
<rect class="m" height="8.00048" transform="translate(-34.53331 171.32381) rotate(-30.96376)" width="46.64762" x="268.67619" y="143.99976"/>
<path class="m" d="M408,324c-46.31787,0-84,37.68213-84,84s37.68213,84,84,84,84-37.68213,84-84-37.68213-84-84-84Zm0,160c-41.90674,0-76-34.09326-76-76s34.09326-76,76-76,76,34.09326,76,76-34.09326,76-76,76Z"/>
<path class="m" d="M439.73828,361.98291c-.14502-1.21777-.84033-2.30127-1.88672-2.94092-8.96875-5.479-19.29102-8.37549-29.85156-8.37549-31.61377,0-57.3335,25.71973-57.3335,57.3335,0,10.56055,2.89648,20.88281,8.37549,29.85156,.63965,1.04639,1.72314,1.7417,2.94092,1.88672,.15771,.01855,.31592,.02783,.47314,.02783,1.0542,0,2.07324-.41699,2.82812-1.17139l73.31055-73.31055c.8667-.86719,1.28809-2.08398,1.14355-3.30127Zm-76.3208,67.16455c-3.11963-6.57373-4.75098-13.79248-4.75098-21.14746,0-27.20264,22.13086-49.3335,49.3335-49.3335,7.35498,0,14.57373,1.63135,21.14746,4.75098l-65.72998,65.72998Z"/>
<path class="m" d="M456.95801,378.14844c-.63965-1.04639-1.72314-1.7417-2.94092-1.88672-1.2168-.1416-2.43359,.27686-3.30127,1.14355l-73.31055,73.31055c-.8667,.86719-1.28809,2.08398-1.14355,3.30127,.14502,1.21777,.84033,2.30127,1.88672,2.94092,8.96875,5.479,19.29102,8.37549,29.85156,8.37549,31.61377,0,57.3335-25.71973,57.3335-57.3335,0-10.56055-2.89648-20.88281-8.37549-29.85156Zm-48.95801,79.18506c-7.35498,0-14.57373-1.63135-21.14746-4.75098l65.72998-65.72998c3.11963,6.57373,4.75098,13.79248,4.75098,21.14746,0,27.20264-22.13086,49.3335-49.3335,49.3335Z"/>
<rect class="m" height="7.9996" transform="translate(88.86725 399.67518) rotate(-61.97401)" width="54.55097" x="349.9147" y="121.84981"/>
<rect class="m" height="7.9998" transform="translate(.7087 300.22902) rotate(-40.36081)" width="82.924" x="367.32267" y="145.15049"/>
<rect class="m" height="8.00012" transform="translate(64.55577 369.42219) rotate(-52.62373)" width="71.88666" x="369.8743" y="115.43573"/>
<path class="m" d="M71.32568,147.81787c4.34814-3.4668,7.53613-8.08984,9.21826-13.36963l-7.62207-2.42871c-1.2002,3.7666-3.47656,7.06641-6.5835,9.54346-4.17627,3.33105-9.40039,4.83545-14.70947,4.23633-5.30811-.59863-10.06592-3.22852-13.39648-7.40576s-4.83496-9.40088-4.23633-14.70947c.59863-5.30811,3.22852-10.06592,7.40625-13.39648,1.5874-1.26611,3.34131-2.27783,5.21338-3.00732,1.71924-.66992,2.75684-2.42822,2.5127-4.25684-.24463-1.82861-1.70752-3.25293-3.54248-3.44775-5.36133-.56982-10.16455-3.20459-13.5249-7.41943-3.33057-4.17725-4.83496-9.40088-4.23633-14.70947s3.22852-10.06641,7.40576-13.39697c8.62256-6.87402,21.23096-5.45312,28.10596,3.16943,1.37646,1.72803,3.89453,2.01172,5.62109,.63379,.99023-.78955,1.50586-1.95312,1.50635-3.12842,.00049-.87451-.28467-1.75537-.87256-2.49268-6.875-8.62256-5.45312-21.23096,3.16943-28.10645,4.17676-3.32959,9.40381-4.83691,14.70947-4.23584,5.30859,.59863,10.06641,3.22852,13.39697,7.40576,3.36133,4.21582,4.86035,9.48584,4.22119,14.83984-.23828,1.99316,1.03906,3.85156,2.98438,4.34766,1.68164,.4292,3.41211-.27832,4.33252-1.68164,1.11963-1.64014,2.48486-3.10742,4.05762-4.3623,4.17676-3.33008,9.40088-4.83301,14.70947-4.23633,5.30859,.59863,10.06641,3.229,13.39697,7.40576,6.875,8.62305,5.45312,21.23145-3.16943,28.10645-1.81543,1.44727-3.8374,2.55664-6.01025,3.29736l2.58203,7.57227c3.04688-1.03906,5.87842-2.5918,8.41553-4.61475,12.07129-9.62451,14.06201-27.27637,4.43701-39.34863-9.35254-11.73096-26.28516-13.94336-38.31152-5.22559-.93066-4.00049-2.75049-7.77637-5.39062-11.0874-4.66211-5.84814-11.32324-9.53027-18.75537-10.36816-7.43018-.8374-14.74561,1.26758-20.59326,5.93066-7.94873,6.33789-11.52637,16.15527-10.29541,25.56836-2.11572-.78369-4.3418-1.31543-6.6416-1.57471-7.42969-.83984-14.74512,1.26758-20.59326,5.93066-5.84766,4.6626-9.52979,11.32324-10.36816,18.75537-.83789,7.43213,1.26807,14.74561,5.93115,20.59326,2.63965,3.31104,5.91553,5.92578,9.6084,7.72412-5.26758,4.60596-8.57861,10.9209-9.36816,17.91992-.83789,7.43213,1.26855,14.74561,5.93115,20.59326s11.32324,9.52979,18.75488,10.36816c1.06836,.12012,2.13281,.18018,3.19238,.18018,6.31055-.00049,12.39355-2.11865,17.40088-6.11133Z"/>
<rect class="m" height="62.68955" transform="translate(-37.76095 82.34177) rotate(-30.20061)" width="8.00001" x="129.70239" y="79.79878"/>
<rect class="m" height="66.47132" transform="translate(-68.20068 111.89092) rotate(-46.72757)" width="8.00003" x="91.40648" y="101.64788"/>
<rect class="m" height="98.05657" transform="translate(-49.19555 89.27205) rotate(-36.00178)" width="7.99955" x="108.77073" y="71.3079"/>
</g>
</g>
<g id="d"/>
</svg>