<?xml version="1.0" encoding="UTF-8" standalone="no"?>
<!-- Uploaded to: SVG Repo, www.svgrepo.com, Generator: SVG Repo Mixer Tools -->

<svg
   height="312.68753"
   width="240.22571"
   version="1.1"
   id="Layer_1"
   viewBox="0 0 149 193.94444"
   xml:space="preserve"
   sodipodi:docname="yoga-svgrepo-com.svg"
   inkscape:version="1.1.2 (0a00cf5339, 2022-02-04)"
   xmlns:inkscape="http://www.inkscape.org/namespaces/inkscape"
   xmlns:sodipodi="http://sodipodi.sourceforge.net/DTD/sodipodi-0.dtd"
   xmlns="http://www.w3.org/2000/svg"
   xmlns:svg="http://www.w3.org/2000/svg"><defs
   id="defs49" /><sodipodi:namedview
   id="namedview47"
   pagecolor="#ffffff"
   bordercolor="#666666"
   borderopacity="1.0"
   inkscape:pageshadow="2"
   inkscape:pageopacity="0.0"
   inkscape:pagecheckerboard="0"
   showgrid="false"
   fit-margin-top="0"
   fit-margin-left="0"
   fit-margin-right="0"
   fit-margin-bottom="0"
   inkscape:zoom="1.02875"
   inkscape:cx="118.59052"
   inkscape:cy="164.27704"
   inkscape:window-width="2560"
   inkscape:window-height="1008"
   inkscape:window-x="0"
   inkscape:window-y="35"
   inkscape:window-maximized="1"
   inkscape:current-layer="Layer_1" />

<polygon
   style="fill:#302f2f"
   points="248.1,328.4 274.6,321.8 275.8,311.5 220.4,311.5 221.6,321.8 "
   id="polygon4"
   transform="translate(-174.9,-146.3)" />
<path
   style="fill:#b3233b"
   d="M 99.7,97.9 C 101.6,86.4 92.2,65.5 92.2,65.5 87.7,64.9 83,64.7 79.5,64.7 H 66.9 c -3.6,0 -8.2,0.2 -12.7,0.8 0,0 -9.4,21 -7.5,32.4 1.8,10.7 4.8,26.4 -1.2,67.3 h 27.7 v 0 h 27.7 c -6,-40.9 -3,-56.6 -1.2,-67.3 z"
   id="path6" />
<path
   style="fill:#f4b382"
   d="m 83.1,172.5 c -14.8,5.3 -31.6,11.1 -35.7,11.1 -17,0.1 -30.6,6.3 -29.8,9.9 0,0 40,1 69.7,0 11.5,-0.3 7.3,-25 -4.2,-21 z"
   id="path8" />
<path
   style="fill:#3d3c3c"
   d="m 83.1,172.5 c 11.5,-4.1 21.8,-8.1 24.2,-8.3 19.9,-2.1 31.5,2.3 31.5,17.6 0,10.8 -13.1,11.8 -24.6,11.8 -6.2,0 -15.4,-0.4 -26.8,0 -0.5,-7.3 -1.9,-14.3 -4.3,-21.1 z"
   id="path10" />
<path
   style="fill:#f4b382"
   d="m 61.7,164.7 c 15.7,0.5 33.5,0.9 37.4,-0.3 16.2,-5.1 31,-3.3 31.4,0.3 0,0 -37.8,13.2 -66.3,21.3 -11,3.1 -14.7,-21.7 -2.5,-21.3 z"
   id="path12" />
<path
   style="fill:#3d3c3c"
   d="m 61.7,164.7 c -12.2,-0.4 -25.5,-3.8 -30,-4.9 -9.2,-2.3 -19.9,-5.6 -22.7,9.7 -2.7,15.1 13.1,16.6 24.5,18.3 7,1 19.6,1.4 30.6,-1.8 -1.7,-7 -2.5,-14.2 -2.4,-21.3 z"
   id="path14" />
<g
   id="g20"
   transform="translate(-174.9,-146.3)">
	<path
   style="fill:#f4b382"
   d="m 198.6,306.6 -23.3,-1.9 -0.4,-3 2.4,-0.3 6.6,-0.8 0.6,-2.6 4.8,-0.2 4,0.8 3.9,-1.6 10.9,-13.5 c 0.3,-4.8 1.1,-12.3 -0.2,-26.2 -1.8,-18.2 0.1,-38.9 5.1,-41.5 6.5,-3.4 16.2,-3.8 16.2,-3.8 0,0 -4.3,22.8 -6.9,22.9 -1,0 -0.1,24.4 -0.9,34.9 -0.6,8.9 -0.8,15.3 -3,18.8 -2.2,3.5 -19.8,18 -19.8,18 z"
   id="path16" />
	<path
   style="fill:#f4b382"
   d="m 300.2,312.6 23.3,-1.9 0.4,-3 -2.4,-0.3 -6.6,-0.8 -0.6,-2.6 -4.8,-0.2 -4,0.8 -3.9,-1.6 -13.5,-19.7 c -0.3,-4.8 -1.1,-12.3 0.2,-26.2 1.8,-18.2 -0.1,-38.9 -5.1,-41.5 -6.5,-3.4 -16.2,-3.8 -16.2,-3.8 0,0 4.3,22.8 6.9,22.9 1,0 0.1,24.4 0.9,34.9 0.6,8.9 0.8,15.3 3,18.8 2.2,3.5 16.7,17.9 16.7,17.9 z"
   id="path18" />
</g>
<path
   style="fill:#e2a379"
   d="M 81.6,53.2 H 64.7 c 2.6,8 0.2,11.6 0.2,11.6 0,0 0.5,5.2 8.3,5.2 7.7,0 8.2,-5.2 8.2,-5.2 0,0 -2.4,-3.7 0.2,-11.6 z"
   id="path22" />
<path
   style="fill:#f4b382"
   d="M 90.5,29.9 C 90.5,9.7999998 82.7,5.1999998 73.2,5.1999998 c -9.6,0 -17.3,4.6 -17.3,24.7000002 0,6.8 1.2,12.1 3,16.2 4,9 10.9,12.2 14.3,12.2 3.4,0 10.3,-3.2 14.3,-12.2 1.8,-4.1 3,-9.4 3,-16.2 z"
   id="path24" />
<path
   style="fill:#d6876b"
   d="m 78.1,50.1 c 0,0 -2.2,1.1 -4.9,1.1 -2.7,0 -4.9,-1.1 -4.9,-1.1 0,-0.3 1.6,-2.1 2.6,-2.2 0.6,-0.1 2.3,0.5 2.3,0.5 0,0 1.6,-0.6 2.3,-0.5 1,0.1 2.6,2.2 2.6,2.2 z"
   id="path26" />
<path
   style="fill:#cc785e"
   d="m 78.1,50.1 c 0,0 -2.2,2 -4.9,2 -2.7,0 -4.9,-2 -4.9,-2 0,0 0.5,-0.6 3.4,-0.8 0.5,0 1.1,0.4 1.5,0.4 0.4,0 0.9,-0.4 1.3,-0.4 3,0.2 3.6,0.8 3.6,0.8 z"
   id="path28" />
<ellipse
   style="fill:#4c230c"
   cx="73.200005"
   cy="6.1999998"
   rx="9.1000004"
   ry="6.1999998"
   id="ellipse30" />
<path
   style="fill:#602f0f"
   d="M 91.2,30.8 C 91.2,10.7 85.7,5.2999998 73.2,5.2999998 60.7,5.2999998 55.2,10.8 55.2,30.8 c 0,0 26.7,-5.8 26.7,-13.1 0,7.3 9.3,13.1 9.3,13.1 z"
   id="path32" />
<g
   id="g38"
   transform="translate(-174.9,-146.3)">
	<path
   style="fill:#f4b382"
   d="m 229.1,183.3 c 0.9,5.5 2.1,5.7 3.8,5.4 l -1.8,-11.9 c -1.7,0.3 -3,1 -2,6.5 z"
   id="path34" />
	<path
   style="fill:#f4b382"
   d="m 265.1,176.8 -1.8,11.9 c 1.7,0.3 2.8,0 3.8,-5.4 1,-5.5 -0.3,-6.2 -2,-6.5 z"
   id="path36" />
</g>
<g
   id="g44"
   transform="translate(-174.9,-146.3)">
	<path
   style="fill:#602f0f"
   d="m 232.1,177.9 c -0.1,-0.6 -0.1,-1.1 -0.1,-1.6 0,-0.6 0.1,-1 0.1,-1 l -2,0.8 c 0,0.3 0,0.6 0,0.9 0,0 0.2,-0.1 0.6,-0.2 0,0 0,0 -0.1,0 0.3,0.5 0.6,1.2 1,2.3 0,0.1 0.8,0.7 0.5,-1.2 z"
   id="path40" />
	<path
   style="fill:#602f0f"
   d="m 264.1,176.4 c 0,0.4 0,1 -0.1,1.5 -0.3,1.8 0.5,1.2 0.5,1.2 0.3,-1.1 0.7,-1.8 1,-2.3 0.4,0.1 0.6,0.2 0.6,0.2 0,-0.3 0,-0.6 0,-0.9 l -2,-0.8 c -0.1,0.1 0,0.5 0,1.1"
   id="path42" />
</g>
</svg>
