<?xml version="1.0" ?>
<!-- Uploaded to: SVG Repo, www.svgrepo.com, Generator: SVG Repo Mixer Tools -->
<svg width="800px" height="800px" viewBox="0 0 64 64" xmlns="http://www.w3.org/2000/svg">
<g id="a"/>
<g id="b">
<path d="M51.71,13.81l-6.23-1.31c-.53-.11-1.08-.02-1.55,.26l-3.55,2.15c-.47,.28-.82,.72-1,1.23l-.78,2.24,3.67,6.69,9.37-3.04,.05-8.22Z" fill="#9dacb9" fill-rule="evenodd"/>
<path d="M12.29,13.66l6.23-1.31c.53-.11,1.08-.02,1.55,.26l3.55,2.15c.47,.28,.82,.72,1,1.23l.78,2.24-3.67,6.69-9.37-3.04-.05-8.22Z" fill="#9dacb9" fill-rule="evenodd"/>
<path d="M43.99,20.17s-4.02-2.6-11.99-2.6-11.99,2.6-11.99,2.6v27.12h25.91l-1.92-27.12Z" fill="#62d9fa" fill-rule="evenodd"/>
<path d="M13.71,17.17l4.58,1.62c.63,.22,1.17,.63,1.57,1.17l1.05,1.44c.39,.54,.6,1.18,.6,1.85v21.01l-3.99,2.62-7.97-5.31,4.16-24.4Z" fill="#e9a696" fill-rule="evenodd"/>
<path d="M14.73,49.65V22.27c0-1.8-.35-3.57-1.02-5.24l-2.32-5.73c-.37-.9-1.04-1.65-1.91-2.09l-.54-.28c-1.8-.93-3.94,.38-3.94,2.4V46.97c0,1.48,1.2,2.68,2.68,2.68h7.06Z" fill="#f0bdb0" fill-rule="evenodd"/>
<path d="M50.29,17.32l-4.58,1.62c-.63,.22-1.17,.63-1.57,1.17l-1.05,1.44c-.39,.54-.6,1.18-.6,1.85v21.01l3.99,2.62,7.97-5.31-4.16-24.4Z" fill="#e9a696" fill-rule="evenodd"/>
<path d="M49.27,49.79V22.41c0-1.8,.35-3.57,1.02-5.24l2.32-5.73c.37-.9,1.04-1.65,1.91-2.09l.54-.28c1.8-.93,3.94,.38,3.94,2.4V47.12c0,1.48-1.2,2.68-2.68,2.68h-7.06Z" fill="#f0bdb0" fill-rule="evenodd"/>
<path d="M32,43.44c-1.18,0-2.36,.35-3.38,1.06-2.03,1.41-4.72,1.41-6.75,0-1.02-.7-2.2-1.05-3.38-1.05s-2.36,.35-3.38,1.05c-2.03,1.41-4.72,1.41-6.45,.21-1.73-1.2-3.68-.18-3.68,1.55v4.46l28.1,1.43,25.9-1.43v-4.46c0-1.73-1.94-2.75-3.68-1.55s-4.42,1.2-6.45-.21c-2.03-1.41-4.72-1.41-6.75,0-2.03,1.41-4.72,1.41-6.75,0-1.02-.7-2.2-1.06-3.38-1.06Z" fill="#0acffb" fill-rule="evenodd"/>
<path d="M50.54,37.44c-.82-.24-1.7-.17-2.46,.21l-1.39,.7c-.73,.36-1.19,1.11-1.19,1.92v7.77l.89,4.74,4.82,1.56,4.67-5.34-1.54-9.17c-.14-.8-.71-1.46-1.49-1.69l-2.32-.69Z" fill="#feccba" fill-rule="evenodd"/>
<path d="M8.11,48.85l1.54-9.17c.13-.8,.71-1.46,1.49-1.69l2.32-.69c.82-.24,1.7-.17,2.46,.21l1.39,.7c.73,.36,1.19,1.11,1.19,1.92v7.77l-.89,4.74-4.82,1.56-4.67-5.34Z" fill="#feccba" fill-rule="evenodd"/>
<path d="M32,47.9c-1.18,0-2.36,.35-3.38,1.06-2.03,1.41-4.72,1.41-6.75,0-1.02-.7-2.2-1.05-3.38-1.05s-2.36,.35-3.38,1.05c-2.03,1.41-4.72,1.41-6.45,.21s-3.68-.18-3.68,1.55v1.47c0,1.77,1.43,3.2,3.2,3.2H55.8c1.77,0,3.2-1.43,3.2-3.2v-1.47c0-1.73-1.94-2.75-3.68-1.55s-4.42,1.2-6.45-.21-4.72-1.41-6.75,0-4.72,1.41-6.75,0c-1.02-.7-2.2-1.06-3.38-1.06Z" fill="#62d9fa" fill-rule="evenodd"/>
<path d="M26.1,24.05c-.55,0-1,.45-1,1v2.99c0,.55,.45,1,1,1s1-.45,1-1v-2.99c0-.55-.45-1-1-1Z" fill="#0acffb" fill-rule="evenodd"/>
<path d="M26.1,31.24c-.55,0-1,.45-1,1v8.03c0,.55,.45,1,1,1s1-.45,1-1v-8.03c0-.55-.45-1-1-1Z" fill="#0acffb" fill-rule="evenodd"/>
<path d="M31.55,24.05c-.55,0-1,.45-1,1v7.28c0,.55,.45,1,1,1s1-.45,1-1v-7.28c0-.55-.45-1-1-1Z" fill="#0acffb" fill-rule="evenodd"/>
<path d="M31.55,35.53c-.55,0-1,.45-1,1v3.74c0,.55,.45,1,1,1s1-.45,1-1v-3.74c0-.55-.45-1-1-1Z" fill="#0acffb" fill-rule="evenodd"/>
<path d="M36.99,24.05c-.55,0-1,.45-1,1v2.99c0,.55,.45,1,1,1s1-.45,1-1v-2.99c0-.55-.45-1-1-1Z" fill="#0acffb" fill-rule="evenodd"/>
<path d="M36.99,31.24c-.55,0-1,.45-1,1v8.03c0,.55,.45,1,1,1s1-.45,1-1v-8.03c0-.55-.45-1-1-1Z" fill="#0acffb" fill-rule="evenodd"/>
</g>
<g id="c"/>
<g id="d"/>
<g id="e"/>
<g id="f"/>
<g id="g"/>
<g id="h"/>
<g id="i"/>
<g id="j"/>
<g id="k"/>
<g id="l"/>
<g id="m"/>
<g id="n"/>
<g id="o"/>
<g id="p"/>
<g id="q"/>
<g id="r"/>
<g id="s"/>
<g id="t"/>
<g id="u"/>
<g id="v"/>
<g id="w"/>
<g id="x"/>
<g id="y"/>
<g id="a`"/>
<g id="aa"/>
<g id="ab"/>
<g id="ac"/>
<g id="ad"/>
<g id="ae"/>
<g id="af"/>
<g id="ag"/>
<g id="ah"/>
<g id="ai"/>
<g id="aj"/>
<g id="ak"/>
<g id="al"/>
<g id="am"/>
<g id="an"/>
<g id="ao"/>
<g id="ap"/>
<g id="aq"/>
<g id="ar"/>
<g id="as"/>
<g id="at"/>
<g id="au"/>
<g id="av"/>
<g id="aw"/>
<g id="ax"/>
</svg>