<?xml version="1.0" encoding="iso-8859-1"?>
<!-- Uploaded to: SVG Repo, www.svgrepo.com, Generator: SVG Repo Mixer Tools -->
<svg version="1.1" id="Layer_1" xmlns="http://www.w3.org/2000/svg" xmlns:xlink="http://www.w3.org/1999/xlink" 
	 viewBox="0 0 512 512" xml:space="preserve">
<rect style="fill:#FDD089;" width="512" height="374.666"/>
<rect y="296.001" style="fill:#FBB03B;" width="512" height="78.665"/>
<rect y="336.003" style="fill:#F15A24;" width="512" height="38.667"/>
<rect y="376.025" style="fill:#39B54A;" width="512" height="135.975"/>
<polygon style="fill:#009245;" points="512,512 0,512 448,376.028 512,376.028 "/>
<path style="fill:#ED1C24;" d="M476.398,368C493.393,351.956,504,329.217,504,303.999c0-48.601-39.399-88-88-88
	c-40.28,0-74.24,27.063-84.688,63.999L376,320l26.782-26.782L476.398,368"/>
<path style="fill:#F15A24;" d="M416,216c-8.343,0-16.389,1.22-24.038,3.389c36.939,10.444,64.037,44.328,64.037,84.611
	c0,16.179-4.408,31.309-12.026,44.334l32.423,19.667c16.996-16.045,27.602-38.785,27.602-64.001C504,255.398,464.601,216,416,216z"
	/>
<polyline style="fill:#C69C6D;" points="376,320 304.001,248 248,304.049 320,376.099 480,376.099 404,292.05 376,320 "/>
<polygon style="fill:#754C24;" points="304.001,256 360,336.001 400,304.049 432,376.099 480,376.099 400,296.05 368,320.024 "/>
<polygon style="fill:#C69C6D;" points="24,376.099 72,328.099 120,376.099 "/>
<polygon style="fill:#754C24;" points="88,376.099 72,336.099 120,376.099 "/>
<polygon style="fill:#C69C6D;" points="120,376.099 88,344.049 184,248.075 264,376.099 "/>
<polygon style="fill:#754C24;" points="184,247.868 224,327.638 207.999,327.638 232,376.099 312,376.099 "/>
<path d="M490.845,367.671l-1.669-1.669c14.722-17.278,22.725-38.929,22.725-62.003c0-52.88-43.021-95.901-95.901-95.901
	c-37.134,0-70.652,21.675-86.417,54.31l-25.582-25.582l-53.587,53.587l11.173,11.174l42.413-42.413L364.826,320l-10.413,10.413
	l11.174,11.173l38.413-38.413l64.496,64.497H314.844L184,236.826l-85.587,85.586l11.174,11.174L184,259.174l108.498,108.497H122.844
	l-50.845-50.845l-50.844,50.845H0v15.802h512v-15.802H490.845z M43.503,367.671L72,339.174l28.497,28.497H43.503z M404,280.826
	l-28,28l-34.432-34.432c11.991-30.093,41.507-50.492,74.433-50.492c44.167,0,80.098,35.932,80.098,80.099
	c0,18.826-6.398,36.507-18.156,50.769L404,280.826z"/>
<rect x="31.605" y="400.329" width="32.658" height="15.802"/>
<rect x="64.263" y="416.132" width="95.868" height="15.802"/>
<rect x="247.572" y="407.704" width="80.066" height="15.802"/>
<rect x="200.165" y="431.934" width="31.605" height="15.802"/>
<rect x="344.494" y="440.362" width="119.045" height="15.802"/>
<rect x="344.494" y="407.704" width="23.177" height="15.802"/>
<rect x="127.473" y="471.967" width="80.066" height="15.802"/>
<rect x="224.395" y="487.77" width="55.835" height="15.802"/>
<g>
	<rect x="88.494" y="208.593" style="fill:#FFFFFF;" width="63.21" height="15.802"/>
	<rect x="55.835" y="224.395" style="fill:#FFFFFF;" width="32.658" height="15.802"/>
	<rect x="215.967" y="128.527" style="fill:#FFFFFF;" width="120.099" height="15.802"/>
	<rect x="95.868" y="160.132" style="fill:#FFFFFF;" width="144.329" height="15.802"/>
	<rect x="304.461" y="88.494" style="fill:#FFFFFF;" width="127.473" height="15.802"/>
	<rect x="167.506" y="128.527" style="fill:#FFFFFF;" width="24.23" height="15.802"/>
	<rect x="231.77" y="55.835" style="fill:#FFFFFF;" width="40.033" height="15.802"/>
</g>
</svg>